<?xml version="1.0" encoding="UTF-8" standalone="no"?>
<!-- Created with Inkscape (http://www.inkscape.org/) -->

<svg
   xmlns:dc="http://purl.org/dc/elements/1.1/"
   xmlns:cc="http://creativecommons.org/ns#"
   xmlns:rdf="http://www.w3.org/1999/02/22-rdf-syntax-ns#"
   xmlns:svg="http://www.w3.org/2000/svg"
   xmlns="http://www.w3.org/2000/svg"
   xmlns:sodipodi="http://sodipodi.sourceforge.net/DTD/sodipodi-0.dtd"
   xmlns:inkscape="http://www.inkscape.org/namespaces/inkscape"
   width="145.28935mm"
   height="161.44299mm"
   viewBox="0 0 514.80479 572.0421"
   id="svg2"
   version="1.1"
   inkscape:version="0.91 r13725"
   sodipodi:docname="yggdrasil_oeverhogdal.svg">
  <title
     id="title4245">Yggdrasil of Oeverhogdal</title>
  <defs
     id="defs4" />
  <sodipodi:namedview
     id="base"
     pagecolor="#ffffff"
     bordercolor="#666666"
     borderopacity="1.0"
     inkscape:pageopacity="0.0"
     inkscape:pageshadow="2"
     inkscape:zoom="16"
     inkscape:cx="251.07848"
     inkscape:cy="541.24501"
     inkscape:document-units="px"
     inkscape:current-layer="g6498"
     showgrid="false"
     inkscape:window-width="1876"
     inkscape:window-height="1024"
     inkscape:window-x="44"
     inkscape:window-y="28"
     inkscape:window-maximized="1"
     showguides="true"
     inkscape:guide-bbox="true"
     inkscape:snap-global="true"
     inkscape:snap-grids="false"
     inkscape:snap-nodes="true"
     guidetolerance="20"
     objecttolerance="20"
     inkscape:snap-object-midpoints="false"
     inkscape:snap-bbox="false"
     inkscape:snap-to-guides="true"
     gridtolerance="20"
     inkscape:snap-perpendicular="false"
     inkscape:snap-tangential="false"
     inkscape:object-paths="true"
     inkscape:snap-intersection-paths="true"
     inkscape:object-nodes="true"
     inkscape:snap-smooth-nodes="true"
     inkscape:snap-page="false"
     inkscape:snap-midpoints="true"
     fit-margin-top="2"
     fit-margin-right="2"
     fit-margin-bottom="2"
     fit-margin-left="2">
    <inkscape:grid
       type="xygrid"
       id="grid4216"
       spacingx="16"
       spacingy="16"
       empspacing="64"
       empcolor="#3f3fff"
       empopacity="0.47058824"
       color="#3f3fff"
       opacity="0.35294118"
       snapvisiblegridlinesonly="true"
       dotted="false"
       enabled="true"
       originx="1.4023929"
       originy="-2.9791751" />
    <sodipodi:guide
       position="17.402393,13.020824"
       orientation="1,0"
       id="guide4218"
       inkscape:label=""
       inkscape:color="rgb(0,0,255)" />
    <sodipodi:guide
       position="17.402393,13.020824"
       orientation="0,1"
       id="guide4220"
       inkscape:label=""
       inkscape:color="rgb(0,0,255)" />
    <sodipodi:guide
       position="17.402393,349.02081"
       orientation="0,1"
       id="guide4222"
       inkscape:label=""
       inkscape:color="rgb(0,0,255)" />
    <sodipodi:guide
       position="353.40238,349.02081"
       orientation="1,0"
       id="guide4224"
       inkscape:label=""
       inkscape:color="rgb(0,0,255)" />
    <sodipodi:guide
       position="33.402391,29.020824"
       orientation="1,0"
       id="guide4226"
       inkscape:label=""
       inkscape:color="rgb(0,0,255)" />
    <sodipodi:guide
       position="259.62498,23.516953"
       orientation="0,1"
       id="guide4228"
       inkscape:label=""
       inkscape:color="rgb(0,0,255)" />
    <sodipodi:guide
       position="337.40238,333.02082"
       orientation="0,1"
       id="guide4230"
       inkscape:label=""
       inkscape:color="rgb(0,0,255)" />
    <sodipodi:guide
       position="65.40239,61.020823"
       orientation="1,0"
       id="guide4232"
       inkscape:label=""
       inkscape:color="rgb(0,0,255)" />
    <sodipodi:guide
       position="337.40238,333.02082"
       orientation="1,0"
       id="guide4234"
       inkscape:label=""
       inkscape:color="rgb(0,0,255)" />
    <sodipodi:guide
       position="305.40238,301.02083"
       orientation="1,0"
       id="guide4236"
       inkscape:label=""
       inkscape:color="rgb(0,0,255)" />
    <sodipodi:guide
       position="305.40238,301.02083"
       orientation="0,1"
       id="guide4238"
       inkscape:label=""
       inkscape:color="rgb(0,0,255)" />
    <sodipodi:guide
       position="65.40239,61.020823"
       orientation="0,1"
       id="guide4240"
       inkscape:label=""
       inkscape:color="rgb(0,0,255)" />
    <sodipodi:guide
       position="253.65061,486.24998"
       orientation="1,0"
       id="guide4207" />
    <sodipodi:guide
       position="261.15294,488.19594"
       orientation="1,0"
       id="guide4209" />
    <sodipodi:guide
       position="255.97264,503.20122"
       orientation="0,1"
       id="guide4237" />
    <sodipodi:guide
       position="257.38346,38.521605"
       orientation="0,1"
       id="guide4239" />
    <sodipodi:guide
       position="258.46874,53.061025"
       orientation="0,1"
       id="guide4241" />
    <sodipodi:guide
       position="258.87499,68.065677"
       orientation="0,1"
       id="guide4243" />
  </sodipodi:namedview>
  <metadata
     id="metadata7">
    <rdf:RDF>
      <cc:Work
         rdf:about="">
        <dc:format>image/svg+xml</dc:format>
        <dc:type
           rdf:resource="http://purl.org/dc/dcmitype/StillImage" />
        <dc:title>Yggdrasil of Oeverhogdal</dc:title>
        <dc:date>12017-12-21</dc:date>
        <dc:creator>
          <cc:Agent>
            <dc:title>Sven</dc:title>
          </cc:Agent>
        </dc:creator>
        <dc:source>https://redgeyser.net  or  https://rotergeysir.de</dc:source>
        <dc:publisher>
          <cc:Agent>
            <dc:title>Der Rote Geysir</dc:title>
          </cc:Agent>
        </dc:publisher>
        <dc:rights>
          <cc:Agent>
            <dc:title>CC BY 4.0</dc:title>
          </cc:Agent>
        </dc:rights>
        <dc:subject>
          <rdf:Bag>
            <rdf:li>Yggdrasil world tree Mimameidr</rdf:li>
          </rdf:Bag>
        </dc:subject>
        <dc:description>Based on the depiction of Yggdrasil on weave II of the tapestries of Oeverhogdal</dc:description>
        <cc:license
           rdf:resource="http://creativecommons.org/licenses/by/3.0/" />
      </cc:Work>
      <cc:License
         rdf:about="http://creativecommons.org/licenses/by/3.0/">
        <cc:permits
           rdf:resource="http://creativecommons.org/ns#Reproduction" />
        <cc:permits
           rdf:resource="http://creativecommons.org/ns#Distribution" />
        <cc:requires
           rdf:resource="http://creativecommons.org/ns#Notice" />
        <cc:requires
           rdf:resource="http://creativecommons.org/ns#Attribution" />
        <cc:permits
           rdf:resource="http://creativecommons.org/ns#DerivativeWorks" />
      </cc:License>
    </rdf:RDF>
  </metadata>
  <g
     inkscape:groupmode="layer"
     id="layer2"
     inkscape:label="Yggdrasil Överhogdal"
     style="display:inline;opacity:1"
     transform="translate(1.4023928,-477.34094)">
    <g
       id="g4549">
      <g
         style="stroke:#000000;stroke-width:2;stroke-miterlimit:4;stroke-dasharray:none;stroke-opacity:1"
         transform="matrix(0.70710678,-0.70710678,0.70710678,0.70710678,-488.13181,292.23039)"
         id="g4163">
        <g
           id="g6516">
          <path
             id="rect4158-6"
             d="m 16,956.36133 0,-48 48,0 0,16 -32,0 0,16 48,0 0,-48 -64,0 0,-48 48,0 0,16 -32,0 0,16 48,0 0,-48 -64,0 0,-48 48,0 0,16 -32,0 0,16 48,0 0,-48 -64,0 0,-48 48,0 0,16 -32,0 0,16 48,0 0,-48 -80,0 0,351.99997 352,0 0,-79.99997 -48,0 0,47.99997 16,0 0,-31.99997 16,0 0,47.99997 -48,0 0,-63.99997 -48,0 0,47.99997 16,0 0,-31.99997 16,0 0,47.99997 -48,0 0,-63.99997 -48,0 0,47.99997 16,0 0,-31.99997 16,0 0,47.99997 -48,0 0,-63.99997 -48,0 0,47.99997 16,0 0,-31.99997 16,0 0,47.99997 -48,0 -3.58e-4,-79.99964 C 69.178295,956.25317 42.666667,956.36133 16,956.36133 Z m 64,79.99997 -64,0 0,-63.99997 63.999937,3e-5 z M 96,700.36133 95.999642,956.36166 352,956.36133 l 0,-80 -48,0 0,48 16,0 0,-32 16,0 0,48 -48,0 0,-64 -48,0 0,48 16,0 0,-32 16,0 0,48 -48,0 0,-64 -48,0 0,48 16,0 0,-32 16,0 0,48 -48,0 0,-48 -48,0 0,-48 48,0 0,16 -32,0 0,16 48,0 0,-48 -64,0 0,-48 48,0 0,16 -32,0 0,16 48,0.64453 0,-48.64453 -64,0 0,-48 48,0 0,16 -32,0 0,16 48,0 0,-48 z m 112,64 0,-48 48,0 0,16 -32,0 0,16 48,0 0,-48 -80,0 0,160 160,0 0,-80 -48,0 0,48 16,0 0,-32 16,0 0,48 -48,0 -3.6e-4,-79.99967 z m 64,80 -64,0 0,-64 63.99993,4e-5 z m 16,-144 -3.6e-4,64.00033 64.00036,-3.3e-4 0,-64 z m 16,16 32,0 0,32 -32,0 z m -192,192 32,0 0,32 -32,0 z"
             style="fill:#bc0000;fill-opacity:1;fill-rule:evenodd;stroke:#000000;stroke-width:2;stroke-linecap:butt;stroke-linejoin:miter;stroke-miterlimit:4;stroke-dasharray:none;stroke-opacity:1"
             inkscape:connector-curvature="0"
             sodipodi:nodetypes="cccccccccccccccccccccccccccccccccccccccccccccccccccccccccccccccccccccccccccccccccccccccccccccccccccccccccccccccccccccccccccccccccccccccccccccccccccccccccccccccccccccccc" />
          <rect
             y="796.36218"
             x="224"
             height="32"
             width="32"
             id="rect4159"
             style="opacity:1;fill:#bc0000;fill-opacity:1;stroke:#000000;stroke-width:2;stroke-miterlimit:4;stroke-dasharray:none;stroke-opacity:1" />
          <rect
             y="988.36218"
             x="32"
             height="32"
             width="32"
             id="rect4161"
             style="opacity:1;fill:#bc0000;fill-opacity:1;stroke:#000000;stroke-width:2;stroke-miterlimit:4;stroke-dasharray:none;stroke-opacity:1" />
        </g>
      </g>
      <g
         id="g4530">
        <path
           style="opacity:1;fill:#bc0000;fill-opacity:1;stroke:#000000;stroke-width:1.9674443;stroke-miterlimit:4;stroke-dasharray:none;stroke-opacity:1"
           d="m 248.00007,530.36222 15.99995,0 c -2e-5,170.31704 -3e-5,340.63339 -5e-5,510.95048 l -15.99995,0 z"
           id="rect4168"
           inkscape:connector-curvature="0"
           sodipodi:nodetypes="ccccc" />
        <g
           id="g6462">
          <path
             sodipodi:nodetypes="ccccccccccccccccccccccccccccc"
             inkscape:connector-curvature="0"
             d="m 254.31565,1015.645 0.63216,0.6337 2.6e-4,-1.2643 z m -0.34363,10e-5 -0.63217,-0.6307 0,1.2643 z m -0.63145,2.2418 -0.24264,0.2318 0,-3.6805 0.92939,0.9164 0,-1.5489 0.73476,0.7253 0.003,0.1766 -0.17005,0 -0.32581,-0.3268 0,0.9724 0.92063,-0.9163 0,3.6805 -0.24161,-0.2318 0,-1.2737 -0.67902,-0.6746 0,2.4593 -0.12061,0.465 -0.12112,-0.465 0,-2.4593 -0.68747,0.6746 z"
             style="fill:#bc0000;fill-opacity:1;fill-rule:evenodd;stroke:#000000;stroke-width:0.06545085;stroke-linecap:butt;stroke-linejoin:miter;stroke-miterlimit:4;stroke-dasharray:none;stroke-opacity:1"
             id="path6267" />
          <g
             id="text6385"
             style="font-style:normal;font-weight:normal;font-size:40px;line-height:105.99999428%;font-family:sans-serif;letter-spacing:0px;word-spacing:0px;fill:#000000;fill-opacity:1;stroke:none;stroke-width:1px;stroke-linecap:butt;stroke-linejoin:miter;stroke-opacity:1">
            <path
               id="path6398"
               style="font-style:normal;font-variant:normal;font-weight:bold;font-stretch:normal;font-size:1px;line-height:105.99999428%;font-family:Ardagh;-inkscape-font-specification:'Ardagh Bold';text-align:center;text-anchor:middle"
               d="m 255.97772,1014.8685 q -0.0581,0 -0.0933,-0.029 -0.0225,-0.019 -0.0298,-0.043 -0.005,-0.017 -0.005,-0.052 l 0,-0.023 0.10694,-0.01 -0.007,0.041 q -0.002,0.039 0.0117,0.059 0.0117,0.015 0.0264,0.015 0.0264,0 0.04,-0.027 0.0102,-0.021 0.0102,-0.049 0,-0.036 -0.0708,-0.077 l -0.0234,-0.014 q -0.0913,-0.058 -0.0913,-0.1133 0,-0.1162 0.10791,-0.1689 0.0132,-0.01 0.0479,-0.017 0.0229,0 0.0493,0.022 0.0283,0.019 0.0708,0.061 l -0.0557,0.1133 -0.0259,-0.024 0.001,-0.018 0,-0.01 q 0,-0.021 -0.0356,-0.049 -0.0357,-0.029 -0.0581,-0.029 -0.008,0 -0.021,0.01 -0.007,0.013 -0.0108,0.046 4.9e-4,0.029 0.0625,0.062 0.0713,0.039 0.0977,0.061 0.0537,0.044 0.0537,0.094 0,0.072 -0.0439,0.1196 -0.0439,0.048 -0.11524,0.048 z" />
            <path
               id="path6400"
               style="font-style:normal;font-variant:normal;font-weight:bold;font-stretch:normal;font-size:1px;line-height:105.99999428%;font-family:Ardagh;-inkscape-font-specification:'Ardagh Bold';text-align:center;text-anchor:middle"
               d="m 256.47772,1014.5496 -0.002,0 -0.0693,0.2422 0.003,0.017 0.003,0.035 -0.0996,0.021 0,-0.019 q 0,-0.036 -0.0166,-0.08 l -0.0967,-0.2588 q -0.0137,-0.037 -0.0166,-0.043 -0.0151,-0.029 -0.0342,-0.032 l 0,-0.027 0.0967,-0.057 0.0435,0.1118 0.0371,0.1031 0.0537,0.1548 q 0.0161,-0.057 0.0459,-0.1704 9.7e-4,-0 0.006,-0.04 0.0107,-0.065 0.007,-0.098 l -0.004,-0.042 0.0762,0 0,0.025 q 0,0.034 -0.0337,0.1513 z" />
            <path
               id="path6402"
               style="font-style:normal;font-variant:normal;font-weight:bold;font-stretch:normal;font-size:1px;line-height:105.99999428%;font-family:Ardagh;-inkscape-font-specification:'Ardagh Bold';text-align:center;text-anchor:middle"
               d="m 256.85712,1014.8104 q -0.0215,0.025 -0.0679,0.04 -0.0386,0.01 -0.0776,0.018 -0.0859,-0.014 -0.13184,-0.088 -0.0396,-0.064 -0.0396,-0.1533 0,-0.1065 0.0513,-0.1695 0.0474,-0.059 0.15528,-0.098 0.0693,0 0.13964,0.085 l -0.0674,0.07 q -0.0332,-0.044 -0.0693,-0.069 -0.0298,-0.021 -0.043,-0.022 -0.022,5e-4 -0.0415,0.038 -0.0132,0.027 -0.0205,0.058 -0.006,0.026 -0.007,0.055 l 0.13818,0 q 0.0171,0 0.0278,-0 0.0156,-0.01 0.04,-0.024 l 0.0142,0.038 q -0.0537,0.043 -0.0986,0.052 -0.0156,0 -0.11914,0 0.003,0.059 0.0474,0.1133 0.0415,0.051 0.0815,0.051 0.0371,0 0.0576,-0.122 l 0.0669,0.031 q -0.0132,0.067 -0.0366,0.095 z" />
            <path
               id="path6404"
               style="font-style:normal;font-variant:normal;font-weight:bold;font-stretch:normal;font-size:1px;line-height:105.99999428%;font-family:Ardagh;-inkscape-font-specification:'Ardagh Bold';text-align:center;text-anchor:middle"
               d="m 257.27167,1014.805 0.0181,-0 0.004,0.041 -0.10059,0.019 q -0.0161,-0.017 -0.0195,-0.027 -0.003,-0.011 -0.001,-0.036 l 9.7e-4,-0.012 0.0186,-0.2422 q 0,-0.035 -0.0293,-0.069 -0.0293,-0.034 -0.0659,-0.036 -0.0229,0.019 -0.0396,0.063 -0.0146,0.04 -0.0151,0.074 l -0.003,0.2695 -0.0962,0.018 0.003,-0.3526 -0.004,-0.024 q -0.004,-0.03 -0.0127,-0.053 l -0.0137,-0 -0.008,-0.036 0.10986,-0.037 0.0176,0.062 0.003,0.017 q 0.0566,-0.067 0.11133,-0.081 0.0576,0.01 0.0996,0.066 0.042,0.056 0.042,0.1094 l 0,0.014 q 0,0.012 -0.002,0.02 l -0.02,0.2173 q 0,0.012 0.002,0.019 z" />
            <path
               id="path6406"
               style="font-style:normal;font-variant:normal;font-weight:bold;font-stretch:normal;font-size:1px;line-height:105.99999428%;font-family:Ardagh;-inkscape-font-specification:'Ardagh Bold';text-align:center;text-anchor:middle"
               d="m 257.78973,1014.8753 -0.0371,-0.065 -0.0127,-0.027 q -0.0781,0.067 -0.1543,0.078 -0.0298,-0.012 -0.0488,-0.038 -0.019,-0.026 -0.019,-0.056 0,-0.095 0.16455,-0.189 -0.0176,-0.07 -0.0185,-0.073 -0.0147,-0.043 -0.0386,-0.065 l -0.0342,0.029 -0.0225,-0.033 q 0.0288,-0.029 0.0786,-0.073 l 0.0181,-0.01 q 0.0386,0 0.0728,0.058 0.0171,0.029 0.0459,0.1616 0.0308,0.1387 0.085,0.229 l -0.0791,0.068 z m -0.0962,-0.249 0.0117,0.01 -0.006,0 -0.006,-10e-4 q -0.0366,5e-4 -0.063,0.025 -0.0264,0.024 -0.0264,0.06 0,0.029 0.042,0.072 l 0.006,5e-4 q 0.0464,5e-4 0.063,-0.072 l -0.022,-0.093 z" />
            <path
               id="path6408"
               style="font-style:normal;font-variant:normal;font-weight:bold;font-stretch:normal;font-size:1px;line-height:105.99999428%;font-family:Ardagh;-inkscape-font-specification:'Ardagh Bold';text-align:center;text-anchor:middle"
               d="m 258.24921,1014.804 q -0.001,0.075 -0.0303,0.1196 -0.0308,0.046 -0.10351,0.078 l -0.0195,-0.035 q 0.0425,-0.017 0.0488,-0.054 0.001,-0.01 0.002,-0.082 -0.0591,0.042 -0.1001,0.042 -0.062,0 -0.1167,-0.068 -0.0508,-0.063 -0.0508,-0.1709 0,-0.1055 0.0522,-0.1689 0.043,-0.052 0.15088,-0.1055 0.0786,0.01 0.14893,0.082 l -0.0537,0.1021 q -0.0532,-0.099 -0.12305,-0.1162 -0.0513,0.015 -0.0684,0.065 -0.0102,0.031 -0.0102,0.1001 0,0.093 0.0405,0.1597 0.0386,0.063 0.083,0.063 0.0107,0 0.0488,-0.06 l 0.002,-0.082 q 4.9e-4,-0.015 -0.002,-0.022 -0.001,-0 -0.003,-0 l -0.0161,0 -0.008,-0.037 0.13232,-0.018 -0.004,0.2085 z" />
            <path
               id="path6410"
               style="font-style:normal;font-variant:normal;font-weight:bold;font-stretch:normal;font-size:1px;line-height:105.99999428%;font-family:Ardagh;-inkscape-font-specification:'Ardagh Bold';text-align:center;text-anchor:middle"
               d="m 258.64178,1014.7601 q -0.0303,0.049 -0.0752,0.073 -0.0234,0.013 -0.0986,0.036 l -0.0108,0 q -0.0474,0 -0.10839,-0.07 -0.0552,-0.063 -0.0552,-0.1695 0,-0.079 0.0371,-0.1445 0.0405,-0.07 0.1123,-0.1011 l 0.0552,-0.024 q 0.0913,0.01 0.1416,0.086 0.0435,0.066 0.0435,0.1586 0,0.09 -0.0415,0.1573 z m -0.0962,-0.2652 q -0.0371,-0.053 -0.1084,-0.063 -0.0478,0.046 -0.0478,0.1586 0,0.074 0.019,0.1182 0.0239,0.054 0.0825,0.085 0.0181,0.01 0.0332,0.011 l 0.006,-10e-4 0.004,0 q 0.0518,-0.04 0.0518,-0.1548 0,-0.098 -0.04,-0.1538 z" />
            <path
               id="path6412"
               style="font-style:normal;font-variant:normal;font-weight:bold;font-stretch:normal;font-size:1px;line-height:105.99999428%;font-family:Ardagh;-inkscape-font-specification:'Ardagh Bold';text-align:center;text-anchor:middle"
               d="m 256.13983,1015.8059 q -0.0571,0.092 -0.17187,0.169 l -0.02,-0.035 q 0.0898,-0.074 0.12597,-0.166 l -0.0537,0.024 q -0.12207,-0.041 -0.12207,-0.1777 0,-0.08 0.0488,-0.1402 0.0493,-0.061 0.1167,-0.061 0.0566,0 0.0962,0.058 0.0371,0.055 0.0371,0.1392 0,0.097 -0.0571,0.1894 z m -0.042,-0.23 q -0.007,-0.03 -0.0269,-0.062 -0.0249,-0.041 -0.0483,-0.041 -0.0176,0 -0.0313,0.023 -0.0156,0.027 -0.0156,0.074 0,0.059 0.0312,0.1088 0.0293,0.046 0.0605,0.046 0.0137,0 0.0249,-0.01 0.0117,-0.052 0.0117,-0.079 0,-0.035 -0.006,-0.062 z" />
            <path
               id="path6414"
               style="font-style:normal;font-variant:normal;font-weight:bold;font-stretch:normal;font-size:1px;line-height:105.99999428%;font-family:Ardagh;-inkscape-font-specification:'Ardagh Bold';text-align:center;text-anchor:middle"
               d="m 256.29022,1015.9285 -0.061,-0.049 0.0522,-0.082 0.0596,0.046 -0.0508,0.085 z" />
            <path
               id="path6416"
               style="font-style:normal;font-variant:normal;font-weight:bold;font-stretch:normal;font-size:1px;line-height:105.99999428%;font-family:Ardagh;-inkscape-font-specification:'Ardagh Bold';text-align:center;text-anchor:middle"
               d="m 256.69647,1015.4675 0.003,-0 0.008,-0.01 q 0.007,-0.01 0.0186,-0.011 l 0.04,-0.024 q 0.0479,0 0.0767,0.023 0.0317,0.025 0.0317,0.071 0,0.049 -0.0478,0.098 0.0435,0.018 0.0723,0.058 0.0298,0.041 0.0298,0.086 0,0.035 -0.0142,0.063 -0.0166,0.041 -0.0757,0.076 -0.0562,0.033 -0.10352,0.033 l -0.0205,-0 -0.0332,-0.01 -0.0786,-0.02 0.004,-0.039 0.002,-0.03 0.003,-0.2363 q 0,0 -0.003,-0.05 -0.001,-0 -0.002,-0.01 l -0.01,-0.037 q -0.001,-0 -0.002,-0.01 -9.8e-4,-5e-4 -0.002,-10e-4 l -0.003,5e-4 -0.0156,0 -0.009,-0.038 0.11084,-0.034 q 0.007,0.014 0.0181,0.043 l 0.001,0.01 z m 0.10742,0.2539 q -0.0278,-0.043 -0.0684,-0.061 l -0.04,0 -0.003,-0.03 q 0.10644,-0.021 0.10644,-0.07 0,-0.021 -0.023,-0.046 -0.0176,-0.019 -0.0464,-0.025 -0.009,0.01 -0.0205,0.026 l -0.003,0.332 q 0.02,0.011 0.0718,0.031 0.0249,-0 0.0405,-0.024 0.0147,-0.019 0.0147,-0.044 0,-0.044 -0.0293,-0.089 z" />
            <path
               id="path6418"
               style="font-style:normal;font-variant:normal;font-weight:bold;font-stretch:normal;font-size:1px;line-height:105.99999428%;font-family:Ardagh;-inkscape-font-specification:'Ardagh Bold';text-align:center;text-anchor:middle"
               d="m 257.08026,1015.7888 -9.8e-4,0.1182 -0.0962,0.018 0.003,-0.3531 -0.004,-0.024 q -0.004,-0.03 -0.0127,-0.053 l -0.0137,-0 -0.008,-0.036 0.10937,-0.036 0.0166,0.057 q 0.0483,-0.044 0.0845,-0.059 0.0757,0.01 0.11572,0.062 0.0371,0.049 0.0371,0.124 0,0.1031 -0.11035,0.1563 0.0752,0.1162 0.10937,0.1162 l 0.005,0 0.019,-0 0,0.034 q -0.0244,0.017 -0.0615,0.02 -0.0137,9e-4 -0.0225,9e-4 -0.04,0 -0.082,-0.038 -0.022,-0.02 -0.0596,-0.07 l -0.006,-0.01 q -0.009,-0.01 -0.022,-0.024 z m 9.8e-4,-0.04 0.007,0 q 0.0576,0 0.0913,-0.029 0.0342,-0.03 0.0342,-0.085 0,-0.054 -0.0308,-0.098 -0.0288,-0.041 -0.061,-0.042 -0.005,9e-4 -0.0147,0 -0.009,0.017 -0.0161,0.05 -0.009,0.04 -0.009,0.072 l -9.7e-4,0.126 z" />
            <path
               id="path6420"
               style="font-style:normal;font-variant:normal;font-weight:bold;font-stretch:normal;font-size:1px;line-height:105.99999428%;font-family:Ardagh;-inkscape-font-specification:'Ardagh Bold';text-align:center;text-anchor:middle"
               d="m 257.60516,1015.9353 -0.0371,-0.065 -0.0127,-0.027 q -0.0781,0.067 -0.1543,0.078 -0.0298,-0.012 -0.0488,-0.038 -0.019,-0.026 -0.019,-0.056 0,-0.095 0.16455,-0.189 -0.0176,-0.07 -0.0186,-0.073 -0.0147,-0.043 -0.0386,-0.064 l -0.0342,0.029 -0.0225,-0.033 q 0.0288,-0.029 0.0786,-0.073 l 0.0181,-0.01 q 0.0386,0 0.0728,0.058 0.0171,0.029 0.0459,0.1616 0.0308,0.1387 0.085,0.229 l -0.0791,0.068 z m -0.0962,-0.249 0.0117,0.01 -0.006,0 -0.006,-10e-4 q -0.0366,5e-4 -0.063,0.025 -0.0264,0.024 -0.0264,0.059 0,0.029 0.042,0.072 l 0.006,5e-4 q 0.0464,5e-4 0.063,-0.072 l -0.022,-0.093 z" />
            <path
               id="path6422"
               style="font-style:normal;font-variant:normal;font-weight:bold;font-stretch:normal;font-size:1px;line-height:105.99999428%;font-family:Ardagh;-inkscape-font-specification:'Ardagh Bold';text-align:center;text-anchor:middle"
               d="m 257.98309,1015.8948 q -0.0508,0.034 -0.15088,0.034 l -0.0132,0 q -0.12402,-0.069 -0.12402,-0.2383 0,-0.078 0.0332,-0.1397 0.0371,-0.069 0.10645,-0.1 l 0.0742,-0.032 q 0.0708,0.012 0.12793,0.078 l -0.0659,0.064 q -0.0571,-0.064 -0.1084,-0.081 -0.0405,0.014 -0.0596,0.08 -0.0132,0.047 -0.0132,0.1035 0,0.068 0.0293,0.128 0.0342,0.07 0.0923,0.088 0.0259,-0.015 0.0405,-0.07 0.004,-0.018 0.004,-0.059 l 0.0855,0.024 q 0,0.081 -0.0586,0.1197 z" />
            <path
               id="path6424"
               style="font-style:normal;font-variant:normal;font-weight:bold;font-stretch:normal;font-size:1px;line-height:105.99999428%;font-family:Ardagh;-inkscape-font-specification:'Ardagh Bold';text-align:center;text-anchor:middle"
               d="m 258.4201,1015.8645 0.02,-0 0.002,0.041 -0.0864,0.017 -0.0137,0 q -0.0127,-0.012 -0.0156,-0.019 -0.007,-0.018 -0.005,-0.045 l 0.008,-0.1084 q 4.9e-4,-0.01 0.009,-0.1142 l 0.002,-0.023 q 0.002,-0.027 -0.0112,-0.052 -0.0132,-0.025 -0.0469,-0.051 -0.022,-0.014 -0.0352,-0.015 l -0.002,5e-4 q -0.0215,0.019 -0.0381,0.065 -0.0161,0.043 -0.0161,0.074 l -0.002,0.2725 -0.0962,0.018 -0.005,-0.5166 -0.0103,-0.046 q -4.9e-4,-0 -0.002,-0.01 -4.9e-4,0 -0.003,0 l -0.0161,0 -0.004,-0.038 0.1084,-0.037 q 0.0293,0.08 0.0352,0.2017 0.0518,-0.055 0.10303,-0.067 0.0596,0.01 0.10059,0.066 0.041,0.056 0.041,0.1065 0,0.01 -9.7e-4,0.017 l -0.002,0.021 -0.02,0.2202 q 0,0.014 0.002,0.019 l 0,5e-4 z" />
            <path
               id="path6426"
               style="font-style:normal;font-variant:normal;font-weight:bold;font-stretch:normal;font-size:1px;line-height:105.99999428%;font-family:Ardagh;-inkscape-font-specification:'Ardagh Bold';text-align:center;text-anchor:middle"
               d="m 258.55585,1015.9285 -0.061,-0.049 0.0523,-0.082 0.0596,0.046 -0.0508,0.085 z" />
            <path
               id="path6428"
               style="font-style:normal;font-variant:normal;font-weight:bold;font-stretch:normal;font-size:1px;line-height:105.99999428%;font-family:Ardagh;-inkscape-font-specification:'Ardagh Bold';text-align:center;text-anchor:middle"
               d="m 256.04022,1016.9846 -0.003,-0.4136 -0.0137,0.01 -0.0449,0.014 -0.0107,-0.045 q 0.0957,-0.03 0.16162,-0.078 l 0.002,0.4292 q 0,0.01 0.001,0.023 l 0.0239,-0 0.005,0.042 -0.12207,0.027 z" />
            <path
               id="path6430"
               style="font-style:normal;font-variant:normal;font-weight:bold;font-stretch:normal;font-size:1px;line-height:105.99999428%;font-family:Ardagh;-inkscape-font-specification:'Ardagh Bold';text-align:center;text-anchor:middle"
               d="m 256.27167,1016.6345 0.0161,-0.01 0.0161,0.032 -0.0859,0.057 -0.021,-0.049 -0.006,-0.029 q 0,-0.077 0.0845,-0.1318 l 0.0439,-0.028 0.01,0 q 0.0684,0 0.10889,0.054 0.0356,0.048 0.0356,0.1152 0,0.075 -0.0962,0.1694 l -0.0542,0.053 0.0781,0 q 0.0327,0 0.0444,-0.01 0.0103,-0.01 0.0215,-0.029 l 0.0312,0.016 q -0.0107,0.03 -0.0215,0.06 -0.0171,0.043 -0.0288,0.052 -0.0132,0.01 -0.0391,0.01 l -0.21289,0 0,-0.026 0.0986,-0.1201 q 0.084,-0.09 0.084,-0.167 0,-0.039 -0.0186,-0.071 -0.0229,-0.038 -0.061,-0.039 l -0.0161,0 q -0.006,0 -0.0103,0.01 -0.003,0.01 -0.007,0.031 0,0.01 0.005,0.036 4.9e-4,0 4.9e-4,0.01 z" />
            <path
               id="path6432"
               style="font-style:normal;font-variant:normal;font-weight:bold;font-stretch:normal;font-size:1px;line-height:105.99999428%;font-family:Ardagh;-inkscape-font-specification:'Ardagh Bold';text-align:center;text-anchor:middle"
               d="m 256.58807,1016.9885 -0.061,-0.049 0.0522,-0.082 0.0596,0.046 -0.0508,0.085 z" />
            <path
               id="path6434"
               style="font-style:normal;font-variant:normal;font-weight:bold;font-stretch:normal;font-size:1px;line-height:105.99999428%;font-family:Ardagh;-inkscape-font-specification:'Ardagh Bold';text-align:center;text-anchor:middle"
               d="m 257.02948,1016.8347 q -0.0273,0.087 -0.10352,0.1323 -0.0356,0.022 -0.0605,0.022 -0.04,0 -0.083,-0.032 -0.0381,-0.029 -0.0606,-0.066 -0.0356,-0.061 -0.0356,-0.1469 0,-0.188 0.16943,-0.2642 0.0962,0.013 0.146,0.089 0.043,0.066 0.043,0.164 0,0.054 -0.0151,0.1026 z m -0.21875,-0.2784 q -0.0327,0.053 -0.0327,0.1475 0,0.079 0.0303,0.1333 0.0356,0.065 0.10937,0.082 0.0366,-0.038 0.0366,-0.1308 0,-0.2046 -0.14355,-0.2315 z" />
            <path
               id="path6436"
               style="font-style:normal;font-variant:normal;font-weight:bold;font-stretch:normal;font-size:1px;line-height:105.99999428%;font-family:Ardagh;-inkscape-font-specification:'Ardagh Bold';text-align:center;text-anchor:middle"
               d="m 257.12225,1016.9846 -0.003,-0.4136 -0.0137,0.01 -0.0449,0.014 -0.0107,-0.045 q 0.0957,-0.03 0.16162,-0.078 l 0.002,0.4292 q 0,0.01 0.001,0.023 l 0.0239,-0 0.005,0.042 -0.12207,0.027 z" />
            <path
               id="path6438"
               style="font-style:normal;font-variant:normal;font-weight:bold;font-stretch:normal;font-size:1px;line-height:105.99999428%;font-family:Ardagh;-inkscape-font-specification:'Ardagh Bold';text-align:center;text-anchor:middle"
               d="m 257.43768,1016.7932 q -0.0508,0.1088 -0.0684,0.1884 l -0.0791,0 q 0.0156,-0.068 0.064,-0.1655 0.0127,-0.025 0.085,-0.1587 l 0.0356,-0.066 -0.10205,0 q -0.022,0 -0.0371,0.01 -0.0127,0 -0.0293,0.024 l -0.0234,-0.02 0.0215,-0.1191 0.0274,0 0.004,0.01 0.003,0 0.23877,0 -0.13965,0.3003 z" />
            <path
               id="path6440"
               style="font-style:normal;font-variant:normal;font-weight:bold;font-stretch:normal;font-size:1px;line-height:105.99999428%;font-family:Ardagh;-inkscape-font-specification:'Ardagh Bold';text-align:center;text-anchor:middle"
               d="m 258.11639,1016.9245 0.02,-0 0.002,0.041 -0.0864,0.017 -0.0137,0 q -0.0127,-0.012 -0.0156,-0.018 -0.007,-0.018 -0.005,-0.045 l 0.008,-0.1084 q 4.9e-4,-0.01 0.009,-0.1142 l 0.002,-0.023 q 0.002,-0.027 -0.0112,-0.052 -0.0132,-0.025 -0.0469,-0.051 -0.022,-0.014 -0.0352,-0.015 l -0.002,5e-4 q -0.0215,0.019 -0.0381,0.065 -0.0161,0.043 -0.0161,0.074 l -0.002,0.2725 -0.0962,0.018 -0.005,-0.5166 -0.0102,-0.046 q -4.9e-4,-0 -0.002,-0.01 -4.9e-4,0 -0.003,0 l -0.0161,0 -0.004,-0.038 0.1084,-0.037 q 0.0293,0.08 0.0351,0.2017 0.0518,-0.055 0.10303,-0.067 0.0596,0.01 0.10059,0.066 0.041,0.056 0.041,0.1065 0,0.01 -9.7e-4,0.017 l -0.002,0.021 -0.02,0.2202 q 0,0.014 0.002,0.019 l 0,5e-4 z" />
            <path
               id="path6442"
               style="font-style:normal;font-variant:normal;font-weight:bold;font-stretch:normal;font-size:1px;line-height:105.99999428%;font-family:Ardagh;-inkscape-font-specification:'Ardagh Bold';text-align:center;text-anchor:middle"
               d="m 258.50555,1016.9304 q -0.0215,0.025 -0.0679,0.04 -0.0386,0.01 -0.0776,0.018 -0.0859,-0.014 -0.13184,-0.088 -0.0395,-0.064 -0.0395,-0.1533 0,-0.1065 0.0513,-0.1695 0.0474,-0.059 0.15527,-0.098 0.0693,0 0.13965,0.085 l -0.0674,0.07 q -0.0332,-0.044 -0.0693,-0.069 -0.0298,-0.021 -0.043,-0.022 -0.022,5e-4 -0.0415,0.038 -0.0132,0.027 -0.0205,0.058 -0.006,0.026 -0.007,0.055 l 0.13818,0 q 0.0171,0 0.0278,-0 0.0156,-0.01 0.04,-0.024 l 0.0142,0.038 q -0.0537,0.044 -0.0986,0.052 -0.0156,0 -0.11914,0 0.003,0.059 0.0474,0.1133 0.0415,0.051 0.0815,0.051 0.0371,0 0.0576,-0.122 l 0.0669,0.031 q -0.0132,0.067 -0.0366,0.095 z" />
            <path
               id="path6444"
               style="font-style:normal;font-variant:normal;font-weight:bold;font-stretch:normal;font-size:1px;line-height:105.99999428%;font-family:Ardagh;-inkscape-font-specification:'Ardagh Bold';text-align:center;text-anchor:middle"
               d="m 256.2038,1017.6359 q -0.007,0.027 -0.022,0.092 l -0.001,0.01 -0.0703,0.2437 0.003,0.017 0.004,0.035 -0.10058,0.021 0,-0.019 q 0,-0.035 -0.0166,-0.08 l -0.0596,-0.1636 -0.0562,0.1895 0.003,0.017 0.003,0.035 -0.0991,0.02 0,-0.019 q 0,-0.036 -0.0166,-0.08 l -0.0972,-0.2588 q -0.0137,-0.038 -0.0166,-0.043 -0.0151,-0.029 -0.0342,-0.032 l 0,-0.027 0.0972,-0.057 0.0435,0.1118 0.0371,0.1031 0.0537,0.1548 0.0527,-0.1919 -0.008,-0.019 q -0.008,-0.029 -0.0151,-0.044 -0.0137,-0.028 -0.0342,-0.031 l 0,-0.027 0.0977,-0.056 0.0102,0.026 0.12305,0.3437 0.0288,-0.1054 0.0234,-0.105 q 0.008,-0.065 0.006,-0.1016 l -0.003,-0.038 0.0752,0 0,0.025 q 0,0.015 -0.0107,0.058 z" />
            <path
               id="path6446"
               style="font-style:normal;font-variant:normal;font-weight:bold;font-stretch:normal;font-size:1px;line-height:105.99999428%;font-family:Ardagh;-inkscape-font-specification:'Ardagh Bold';text-align:center;text-anchor:middle"
               d="m 256.56024,1017.9904 q -0.0215,0.025 -0.0679,0.04 -0.0386,0.01 -0.0776,0.018 -0.0859,-0.014 -0.13183,-0.088 -0.0395,-0.065 -0.0395,-0.1533 0,-0.1065 0.0513,-0.1695 0.0474,-0.059 0.15527,-0.098 0.0693,0 0.13965,0.085 l -0.0674,0.07 q -0.0332,-0.044 -0.0693,-0.069 -0.0298,-0.021 -0.043,-0.022 -0.022,5e-4 -0.0415,0.038 -0.0132,0.027 -0.0205,0.058 -0.006,0.026 -0.007,0.055 l 0.13819,0 q 0.0171,0 0.0278,-0 0.0156,-0.01 0.04,-0.024 l 0.0142,0.038 q -0.0537,0.043 -0.0986,0.052 -0.0156,0 -0.11915,0 0.003,0.059 0.0474,0.1133 0.0415,0.051 0.0815,0.051 0.0371,0 0.0576,-0.122 l 0.0669,0.031 q -0.0132,0.067 -0.0366,0.095 z" />
            <path
               id="path6448"
               style="font-style:normal;font-variant:normal;font-weight:bold;font-stretch:normal;font-size:1px;line-height:105.99999428%;font-family:Ardagh;-inkscape-font-specification:'Ardagh Bold';text-align:center;text-anchor:middle"
               d="m 256.75311,1018.0485 q -0.0581,0 -0.0933,-0.029 -0.0225,-0.019 -0.0298,-0.043 -0.005,-0.017 -0.005,-0.052 l 0,-0.023 0.10694,-0.01 -0.007,0.041 q -0.002,0.04 0.0117,0.059 0.0117,0.015 0.0264,0.015 0.0264,0 0.04,-0.027 0.0103,-0.022 0.0103,-0.049 0,-0.036 -0.0708,-0.077 l -0.0234,-0.014 q -0.0913,-0.058 -0.0913,-0.1133 0,-0.1162 0.10791,-0.1689 0.0132,-0.01 0.0478,-0.017 0.023,0 0.0493,0.021 0.0283,0.019 0.0708,0.062 l -0.0557,0.1133 -0.0259,-0.024 0.001,-0.018 0,-0.01 q 0,-0.02 -0.0356,-0.049 -0.0357,-0.029 -0.0581,-0.029 -0.008,0 -0.021,0.01 -0.007,0.013 -0.0107,0.046 4.8e-4,0.029 0.0625,0.062 0.0713,0.039 0.0977,0.06 0.0537,0.044 0.0537,0.094 0,0.072 -0.0439,0.1196 -0.0439,0.048 -0.11524,0.048 z" />
            <path
               id="path6450"
               style="font-style:normal;font-variant:normal;font-weight:bold;font-stretch:normal;font-size:1px;line-height:105.99999428%;font-family:Ardagh;-inkscape-font-specification:'Ardagh Bold';text-align:center;text-anchor:middle"
               d="m 256.99188,1017.5577 0,-0.016 0.004,-0.026 0.0991,-0.073 0.0142,0.027 q -0.0176,0.039 -0.02,0.088 l 0.0684,0 q 0.0269,0 0.0605,-0.033 l 0.0171,0.034 q -0.0166,0.028 -0.0386,0.041 -0.0186,0.012 -0.0347,0.014 -0.001,0 -0.0381,0 l -0.0352,5e-4 0,0.3242 q 0.002,0.016 0.006,0.021 l 0.0112,0.021 q 0.002,0 0.005,0.01 0.002,0 0.007,0.01 0.0239,-0.04 0.0239,-0.1235 l 0.0815,0.015 q 0,0.081 -0.0327,0.1226 -0.0303,0.039 -0.0854,0.039 -0.0273,0 -0.0493,-0.012 -0.009,-0 -0.0176,-0.012 -0.0483,-0.034 -0.0483,-0.1508 l 0,-0.017 0.001,-0.2427 -0.0239,0 q -0.008,0 -0.0147,0 -0.007,0 -0.0239,0.018 l -0.0229,-0.01 0.007,-0.047 q 9.7e-4,-0.023 0.0356,-0.023 l 0.0425,0 z" />
            <path
               id="path6452"
               style="font-style:normal;font-variant:normal;font-weight:bold;font-stretch:normal;font-size:1px;line-height:105.99999428%;font-family:Ardagh;-inkscape-font-specification:'Ardagh Bold';text-align:center;text-anchor:middle"
               d="m 257.48016,1017.547 q -0.042,-0.041 -0.0674,-0.059 -0.0137,-0.01 -0.0234,-0.011 -0.01,0.01 -0.0161,0.016 -0.006,0.015 -0.006,0.04 0,0.02 0.003,0.048 0.002,0.017 0.005,0.034 9.8e-4,0.024 0.005,0.096 0.002,0.029 0.002,0.054 l 0,0.078 q 0,0.013 -9.8e-4,0.035 -4.9e-4,0.026 -9.8e-4,0.035 l 0.0967,0 0.0127,-0 q 0.005,-0 0.022,-0.019 l 0.0186,0.031 q -0.021,0.023 -0.0469,0.041 -0.0181,0.01 -0.0518,0.011 0.0205,-4e-4 -0.0522,-0 l 0,0.1958 -0.0986,0.016 0.002,-0.2134 -0.0381,-0 0.0381,-0.053 0,-0.083 q 0,-0.027 -0.002,-0.09 -0.002,-0.078 -0.007,-0.1562 -0.002,-0.047 0.0439,-0.1021 0.041,-0.049 0.11133,-0.085 0.0498,0.01 0.10987,0.076 l -0.0591,0.069 z" />
            <path
               id="path6454"
               style="font-style:normal;font-variant:normal;font-weight:bold;font-stretch:normal;font-size:1px;line-height:105.99999428%;font-family:Ardagh;-inkscape-font-specification:'Ardagh Bold';text-align:center;text-anchor:middle"
               d="m 257.78973,1018.0553 -0.0371,-0.065 -0.0127,-0.027 q -0.0781,0.067 -0.1543,0.078 -0.0298,-0.012 -0.0488,-0.038 -0.019,-0.026 -0.019,-0.056 0,-0.095 0.16455,-0.189 -0.0176,-0.07 -0.0185,-0.073 -0.0147,-0.043 -0.0386,-0.064 l -0.0342,0.029 -0.0225,-0.033 q 0.0288,-0.029 0.0786,-0.073 l 0.0181,-0.01 q 0.0386,0 0.0728,0.058 0.0171,0.029 0.0459,0.1616 0.0308,0.1387 0.085,0.229 l -0.0791,0.068 z m -0.0962,-0.249 0.0117,0.01 -0.006,0 -0.006,-10e-4 q -0.0366,5e-4 -0.063,0.025 -0.0264,0.024 -0.0264,0.059 0,0.029 0.042,0.072 l 0.006,5e-4 q 0.0464,5e-4 0.063,-0.072 l -0.022,-0.093 z" />
            <path
               id="path6456"
               style="font-style:normal;font-variant:normal;font-weight:bold;font-stretch:normal;font-size:1px;line-height:105.99999428%;font-family:Ardagh;-inkscape-font-specification:'Ardagh Bold';text-align:center;text-anchor:middle"
               d="m 258.07684,1018.0206 q -0.0171,0.015 -0.0381,0.015 l -0.0317,-0 -0.0361,-0 -0.022,0 -0.0415,0 -0.003,-0.4683 q -0.006,-0.097 -0.0166,-0.097 l -0.002,0 q -0.0156,-0.01 -0.0171,-0.033 l 0.11084,-0.038 q 0.0273,0.1132 0.0273,0.1938 l 0,0.067 -0.003,0.3105 0.021,0 0.0107,9e-4 0.007,10e-4 q 0.002,-5e-4 0.008,-0 l 0.042,-0.033 0.021,0.031 q -0.0215,0.037 -0.0371,0.05 z" />
            <path
               id="path6458"
               style="font-style:normal;font-variant:normal;font-weight:bold;font-stretch:normal;font-size:1px;line-height:105.99999428%;font-family:Ardagh;-inkscape-font-specification:'Ardagh Bold';text-align:center;text-anchor:middle"
               d="m 258.41766,1017.9904 q -0.0215,0.025 -0.0679,0.04 -0.0386,0.01 -0.0776,0.018 -0.0859,-0.014 -0.13184,-0.088 -0.0395,-0.065 -0.0395,-0.1533 0,-0.1065 0.0513,-0.1695 0.0474,-0.059 0.15527,-0.098 0.0693,0 0.13965,0.085 l -0.0674,0.07 q -0.0332,-0.044 -0.0693,-0.069 -0.0298,-0.021 -0.043,-0.022 -0.022,5e-4 -0.0415,0.038 -0.0132,0.027 -0.0205,0.058 -0.006,0.026 -0.007,0.055 l 0.13818,0 q 0.0171,0 0.0278,-0 0.0156,-0.01 0.04,-0.024 l 0.0142,0.038 q -0.0537,0.043 -0.0986,0.052 -0.0156,0 -0.11914,0 0.003,0.059 0.0474,0.1133 0.0415,0.051 0.0815,0.051 0.0371,0 0.0576,-0.122 l 0.0669,0.031 q -0.0132,0.067 -0.0366,0.095 z" />
            <path
               id="path6460"
               style="font-style:normal;font-variant:normal;font-weight:bold;font-stretch:normal;font-size:1px;line-height:105.99999428%;font-family:Ardagh;-inkscape-font-specification:'Ardagh Bold';text-align:center;text-anchor:middle"
               d="m 258.83221,1017.985 0.0181,-0 0.004,0.041 -0.10059,0.019 q -0.0161,-0.017 -0.0195,-0.027 -0.003,-0.011 -0.001,-0.036 l 9.8e-4,-0.012 0.0186,-0.2422 q 0,-0.035 -0.0293,-0.069 -0.0293,-0.034 -0.0659,-0.036 -0.023,0.018 -0.0396,0.063 -0.0147,0.04 -0.0151,0.074 l -0.003,0.2695 -0.0962,0.018 0.003,-0.3526 -0.004,-0.024 q -0.004,-0.03 -0.0127,-0.053 l -0.0137,-0 -0.008,-0.036 0.10986,-0.037 0.0176,0.062 0.003,0.017 q 0.0566,-0.067 0.11132,-0.081 0.0576,0.01 0.0996,0.066 0.042,0.056 0.042,0.1094 l 0,0.014 q 0,0.012 -0.002,0.02 l -0.02,0.2173 q 0,0.012 0.002,0.019 z" />
          </g>
        </g>
        <g
           id="g6498"
           transform="matrix(0.93779078,0,0,0.93779078,15.924953,63.818329)">
          <rect
             y="1009.8661"
             x="252"
             height="16"
             width="8"
             id="rect4199-3"
             style="display:inline;opacity:1;fill:#ffffff;fill-opacity:1;stroke:none;stroke-width:0.30000001;stroke-miterlimit:4;stroke-dasharray:none;stroke-opacity:1" />
          <rect
             y="946.36218"
             x="252"
             height="16"
             width="8"
             id="rect4199-3-6"
             style="display:inline;opacity:1;fill:#ffffff;fill-opacity:1;stroke:none;stroke-width:0.30000001;stroke-miterlimit:4;stroke-dasharray:none;stroke-opacity:1" />
          <rect
             y="978.36218"
             x="252"
             height="16"
             width="8"
             id="rect4199-3-7"
             style="display:inline;opacity:1;fill:#ffffff;fill-opacity:1;stroke:none;stroke-width:0.30000001;stroke-miterlimit:4;stroke-dasharray:none;stroke-opacity:1" />
          <rect
             y="914.36218"
             x="252"
             height="16"
             width="8"
             id="rect4199-3-6-5"
             style="display:inline;opacity:1;fill:#ffffff;fill-opacity:1;stroke:none;stroke-width:0.30000001;stroke-miterlimit:4;stroke-dasharray:none;stroke-opacity:1" />
          <rect
             y="882.36218"
             x="252"
             height="16"
             width="8"
             id="rect4199-3-6-5-3"
             style="display:inline;opacity:1;fill:#ffffff;fill-opacity:1;stroke:none;stroke-width:0.30000001;stroke-miterlimit:4;stroke-dasharray:none;stroke-opacity:1" />
          <rect
             y="850.36218"
             x="252"
             height="16"
             width="8"
             id="rect4199-3-6-5-3-5"
             style="display:inline;opacity:1;fill:#ffffff;fill-opacity:1;stroke:none;stroke-width:0.30000001;stroke-miterlimit:4;stroke-dasharray:none;stroke-opacity:1" />
          <rect
             y="818.36218"
             x="252"
             height="16"
             width="8"
             id="rect4199-3-6-5-3-5-6"
             style="display:inline;opacity:1;fill:#ffffff;fill-opacity:1;stroke:none;stroke-width:0.30000001;stroke-miterlimit:4;stroke-dasharray:none;stroke-opacity:1" />
          <rect
             y="786.36218"
             x="252"
             height="16"
             width="8"
             id="rect4199-3-6-5-3-5-6-2"
             style="display:inline;opacity:1;fill:#ffffff;fill-opacity:1;stroke:none;stroke-width:0.30000001;stroke-miterlimit:4;stroke-dasharray:none;stroke-opacity:1" />
          <rect
             y="754.36218"
             x="252"
             height="16"
             width="8"
             id="rect4199-3-6-5-3-5-6-2-9"
             style="display:inline;opacity:1;fill:#ffffff;fill-opacity:1;stroke:none;stroke-width:0.30000001;stroke-miterlimit:4;stroke-dasharray:none;stroke-opacity:1" />
          <rect
             y="722.36218"
             x="252"
             height="16"
             width="8"
             id="rect4199-3-6-5-3-5-6-2-9-1"
             style="display:inline;opacity:1;fill:#ffffff;fill-opacity:1;stroke:none;stroke-width:0.30000001;stroke-miterlimit:4;stroke-dasharray:none;stroke-opacity:1" />
          <rect
             y="690.36218"
             x="252"
             height="16"
             width="8"
             id="rect4199-3-6-5-3-5-6-2-9-1-2"
             style="display:inline;opacity:1;fill:#ffffff;fill-opacity:1;stroke:none;stroke-width:0.30000001;stroke-miterlimit:4;stroke-dasharray:none;stroke-opacity:1" />
          <rect
             y="658.36218"
             x="252"
             height="16"
             width="8"
             id="rect4199-3-6-5-3-5-6-2-9-1-2-7"
             style="display:inline;opacity:1;fill:#ffffff;fill-opacity:1;stroke:none;stroke-width:0.30000001;stroke-miterlimit:4;stroke-dasharray:none;stroke-opacity:1" />
          <rect
             y="626.36218"
             x="252"
             height="16"
             width="8"
             id="rect4199-3-6-5-3-5-6-2-9-1-2-7-0"
             style="display:inline;opacity:1;fill:#ffffff;fill-opacity:1;stroke:none;stroke-width:0.30000001;stroke-miterlimit:4;stroke-dasharray:none;stroke-opacity:1" />
          <rect
             y="594.36218"
             x="252"
             height="16"
             width="8"
             id="rect4199-3-6-5-3-5-6-2-9-1-2-7-0-9"
             style="display:inline;opacity:1;fill:#ffffff;fill-opacity:1;stroke:none;stroke-width:0.30000001;stroke-miterlimit:4;stroke-dasharray:none;stroke-opacity:1" />
          <rect
             y="562.36218"
             x="252"
             height="16"
             width="8"
             id="rect4199-3-6-5-3-5-6-2-9-1-2-7-0-9-3"
             style="display:inline;opacity:1;fill:#ffffff;fill-opacity:1;stroke:none;stroke-width:0.30000001;stroke-miterlimit:4;stroke-dasharray:none;stroke-opacity:1" />
          <rect
             y="530.36218"
             x="252"
             height="16"
             width="8"
             id="rect4199-3-6-5-3-5-6-2-9-1-2-7-0-9-3-6"
             style="display:inline;opacity:1;fill:#ffffff;fill-opacity:1;stroke:none;stroke-width:0.30000001;stroke-miterlimit:4;stroke-dasharray:none;stroke-opacity:1" />
          <rect
             y="498.36151"
             x="252"
             height="15.999999"
             width="7.9999995"
             id="rect4199-3-6-5-3-5-6-2-9-1-2-7-0-9-3-6-3"
             style="display:inline;opacity:1;fill:#ffffff;fill-opacity:1;stroke:none;stroke-width:0.30000001;stroke-miterlimit:4;stroke-dasharray:none;stroke-opacity:1" />
        </g>
      </g>
      <path
         sodipodi:nodetypes="ccccsscscsc"
         inkscape:connector-curvature="0"
         id="path4171"
         d="m 257.03829,536.4785 c -30.60345,-0.64881 -25.15602,-21.5202 -26.65385,-31.56642 -0.30652,-1.27994 -6.40164,-5.03487 -9.52664,-3.40987 -1.375,0.5 -4.60078,3.73375 -4.60078,3.73375 -8.30614,-7.37916 -3.60177,-14.32708 -0.825,-15.35864 4.93964,-1.83506 -2.56232,-6.39336 11.44924,-6.02875 22.81014,0.59356 2.45437,24.37651 29.27185,26.44558 10.63613,0.81465 14.45883,-5.02278 18.71816,-10.83031 1.49741,-2.04169 6.4134,-1.78893 10.50186,-1.35289 -3.47633,15.57999 3.90086,27.65274 -4.09069,33.35579 -8.20373,5.85446 -16.36018,5.17467 -24.24415,5.01176 z"
         style="fill:#bc0000;fill-opacity:1;fill-rule:evenodd;stroke:#000000;stroke-width:2;stroke-linecap:butt;stroke-linejoin:miter;stroke-miterlimit:4;stroke-dasharray:none;stroke-opacity:1" />
    </g>
  </g>
</svg>
